<svg width="40" height="40" viewBox="0 0 100 100" fill="none" xmlns="http://www.w3.org/2000/svg">
    <!-- Left ear -->
    <path d="M20 35 L35 10 L45 35 Z" fill="#ff8c00" />
    <!-- Right ear -->
    <path d="M55 35 L65 10 L80 35 Z" fill="#ff8c00" />
    <!-- Left ear inner -->
    <path d="M28 32 L35 18 L40 32 Z" fill="#ffb366" />
    <!-- Right ear inner -->
    <path d="M60 32 L65 18 L72 32 Z" fill="#ffb366" />
    <!-- Face -->
    <ellipse cx="50" cy="55" rx="32" ry="28" fill="#ff8c00" />
    <!-- White muzzle -->
    <path d="M30 55 Q50 85 70 55 Q60 70 50 70 Q40 70 30 55" fill="white" />
    <!-- Left eye -->
    <ellipse cx="38" cy="48" rx="5" ry="6" fill="#1a1a1a" />
    <!-- Right eye -->
    <ellipse cx="62" cy="48" rx="5" ry="6" fill="#1a1a1a" />
    <!-- Left eye highlight -->
    <circle cx="36" cy="46" r="2" fill="white" />
    <!-- Right eye highlight -->
    <circle cx="60" cy="46" r="2" fill="white" />
    <!-- Nose -->
    <ellipse cx="50" cy="62" rx="6" ry="4" fill="#1a1a1a" />
    <!-- Mouth -->
    <path d="M44 68 Q50 74 56 68" stroke="#1a1a1a" stroke-width="2" fill="none" stroke-linecap="round" />
</svg>
